<?xml version="1.0" encoding="UTF-8" standalone="no"?>
<svg width="10px" height="10px" viewBox="0 0 10 10" version="1.1" xmlns="http://www.w3.org/2000/svg" xmlns:xlink="http://www.w3.org/1999/xlink" xmlns:sketch="http://www.bohemiancoding.com/sketch/ns">
    <!-- Generator: Sketch 3.3.2 (12043) - http://www.bohemiancoding.com/sketch -->
    <title>Imported Layers 20 Copy 2</title>
    <desc>Created with Sketch.</desc>
    <defs></defs>
    <g id="Settings" stroke="none" stroke-width="1" fill="none" fill-rule="evenodd" sketch:type="MSPage">
        <g id="Rule-Set-Editor-(Spec)-4" sketch:type="MSArtboardGroup" transform="translate(-417.000000, -351.000000)" fill="#FFFFFF">
            <g id="Rectangle-103-+-27-+-Imported-Layers-4-Copy-7" sketch:type="MSLayerGroup" transform="translate(320.000000, 346.000000)">
                <path d="M103.139294,10.0006251 L106.764634,6.37528518 C107.079039,6.06088071 107.079039,5.55020783 106.765259,5.23580336 C106.450855,4.92139888 105.940182,4.92139888 105.625777,5.23580336 L102.000437,8.86114323 L98.3750975,5.23580336 C98.0606931,4.92139888 97.5500202,4.92139888 97.2356157,5.23580336 C96.9212112,5.55020783 96.9212112,6.06025565 97.2349907,6.37528518 L100.860331,10.0006251 L97.2349907,13.6253399 C96.9205862,13.9397444 96.9199611,14.4497922 97.2343656,14.7641966 C97.5487701,15.0786011 98.0594429,15.0786011 98.3738474,14.7641966 L101.999187,11.1394818 L105.624527,14.7641966 C105.938932,15.0786011 106.449605,15.0786011 106.764009,14.7641966 C107.079039,14.4497922 107.079039,13.9397444 106.764634,13.6253399 L103.139294,10.0006251 Z" id="Imported-Layers-20-Copy-2" sketch:type="MSShapeGroup"></path>
            </g>
        </g>
    </g>
</svg>